<svg width="490" height="99" viewBox="0 0 490 99" fill="none" xmlns="http://www.w3.org/2000/svg">
<path d="M482 87.6667C485.682 87.6667 488.667 84.6819 488.667 81C488.667 77.3181 485.682 74.3333 482 74.3333C478.318 74.3333 475.333 77.3181 475.333 81C475.333 84.6819 478.318 87.6667 482 87.6667Z" stroke="#999999" stroke-opacity="0.5" stroke-width="2" stroke-linecap="round" stroke-linejoin="round"/>
<path d="M482 83.6667V81" stroke="#999999" stroke-opacity="0.5" stroke-width="2" stroke-linecap="round" stroke-linejoin="round"/>
<path d="M482 78.3333H482.01" stroke="#999999" stroke-opacity="0.5" stroke-width="2" stroke-linecap="round" stroke-linejoin="round"/>
<path d="M364.226 45.416C367.298 42.856 369.746 40.728 371.57 39.032C373.394 37.304 374.914 35.512 376.13 33.656C377.346 31.8 377.954 29.976 377.954 28.184C377.954 26.552 377.57 25.272 376.802 24.344C376.034 23.416 374.85 22.952 373.25 22.952C371.65 22.952 370.418 23.496 369.554 24.584C368.69 25.64 368.242 27.096 368.21 28.952H361.682C361.81 25.112 362.946 22.2 365.09 20.216C367.266 18.232 370.018 17.24 373.346 17.24C376.994 17.24 379.794 18.216 381.746 20.168C383.698 22.088 384.674 24.632 384.674 27.8C384.674 30.296 384.002 32.68 382.658 34.952C381.314 37.224 379.778 39.208 378.05 40.904C376.322 42.568 374.066 44.584 371.282 46.952H385.442V52.52H361.73V47.528L364.226 45.416ZM411.949 23.096L399.181 53H392.365L405.229 23.864H388.813V18.104H411.949V23.096Z" fill="#FFBA08"/>
<path d="M307.581 82.352C307.581 80.976 307.861 79.776 308.421 78.752C308.981 77.712 309.757 76.912 310.749 76.352C311.741 75.776 312.877 75.488 314.157 75.488C315.805 75.488 317.165 75.904 318.237 76.736C319.325 77.552 320.053 78.704 320.421 80.192H316.797C316.605 79.616 316.277 79.168 315.813 78.848C315.365 78.512 314.805 78.344 314.133 78.344C313.173 78.344 312.413 78.696 311.853 79.4C311.293 80.088 311.013 81.072 311.013 82.352C311.013 83.616 311.293 84.6 311.853 85.304C312.413 85.992 313.173 86.336 314.133 86.336C315.493 86.336 316.381 85.728 316.797 84.512H320.421C320.053 85.952 319.325 87.096 318.237 87.944C317.149 88.792 315.789 89.216 314.157 89.216C312.877 89.216 311.741 88.936 310.749 88.376C309.757 87.8 308.981 87 308.421 85.976C307.861 84.936 307.581 83.728 307.581 82.352ZM324.587 74.12C323.995 74.12 323.499 73.936 323.099 73.568C322.715 73.184 322.523 72.712 322.523 72.152C322.523 71.592 322.715 71.128 323.099 70.76C323.499 70.376 323.995 70.184 324.587 70.184C325.179 70.184 325.667 70.376 326.051 70.76C326.451 71.128 326.651 71.592 326.651 72.152C326.651 72.712 326.451 73.184 326.051 73.568C325.667 73.936 325.179 74.12 324.587 74.12ZM326.243 75.704V89H322.883V75.704H326.243ZM328.698 82.304C328.698 80.96 328.962 79.768 329.49 78.728C330.034 77.688 330.77 76.888 331.698 76.328C332.626 75.768 333.658 75.488 334.794 75.488C335.658 75.488 336.482 75.68 337.266 76.064C338.05 76.432 338.674 76.928 339.138 77.552V71.24H342.546V89H339.138V87.032C338.722 87.688 338.138 88.216 337.386 88.616C336.634 89.016 335.762 89.216 334.77 89.216C333.65 89.216 332.626 88.928 331.698 88.352C330.77 87.776 330.034 86.968 329.49 85.928C328.962 84.872 328.698 83.664 328.698 82.304ZM339.162 82.352C339.162 81.536 339.002 80.84 338.682 80.264C338.362 79.672 337.93 79.224 337.386 78.92C336.842 78.6 336.258 78.44 335.634 78.44C335.01 78.44 334.434 78.592 333.906 78.896C333.378 79.2 332.946 79.648 332.61 80.24C332.29 80.816 332.13 81.504 332.13 82.304C332.13 83.104 332.29 83.808 332.61 84.416C332.946 85.008 333.378 85.464 333.906 85.784C334.45 86.104 335.026 86.264 335.634 86.264C336.258 86.264 336.842 86.112 337.386 85.808C337.93 85.488 338.362 85.04 338.682 84.464C339.002 83.872 339.162 83.168 339.162 82.352ZM344.964 82.304C344.964 80.96 345.228 79.768 345.756 78.728C346.3 77.688 347.028 76.888 347.94 76.328C348.868 75.768 349.9 75.488 351.036 75.488C352.028 75.488 352.892 75.688 353.628 76.088C354.38 76.488 354.98 76.992 355.428 77.6V75.704H358.812V89H355.428V87.056C354.996 87.68 354.396 88.2 353.628 88.616C352.876 89.016 352.004 89.216 351.012 89.216C349.892 89.216 348.868 88.928 347.94 88.352C347.028 87.776 346.3 86.968 345.756 85.928C345.228 84.872 344.964 83.664 344.964 82.304ZM355.428 82.352C355.428 81.536 355.268 80.84 354.948 80.264C354.628 79.672 354.196 79.224 353.652 78.92C353.108 78.6 352.524 78.44 351.9 78.44C351.276 78.44 350.7 78.592 350.172 78.896C349.644 79.2 349.212 79.648 348.876 80.24C348.556 80.816 348.396 81.504 348.396 82.304C348.396 83.104 348.556 83.808 348.876 84.416C349.212 85.008 349.644 85.464 350.172 85.784C350.716 86.104 351.292 86.264 351.9 86.264C352.524 86.264 353.108 86.112 353.652 85.808C354.196 85.488 354.628 85.04 354.948 84.464C355.268 83.872 355.428 83.168 355.428 82.352ZM361.229 82.304C361.229 80.96 361.493 79.768 362.021 78.728C362.566 77.688 363.302 76.888 364.23 76.328C365.158 75.768 366.19 75.488 367.326 75.488C368.19 75.488 369.014 75.68 369.798 76.064C370.582 76.432 371.206 76.928 371.67 77.552V71.24H375.078V89H371.67V87.032C371.254 87.688 370.67 88.216 369.918 88.616C369.166 89.016 368.294 89.216 367.302 89.216C366.182 89.216 365.158 88.928 364.23 88.352C363.302 87.776 362.566 86.968 362.021 85.928C361.493 84.872 361.229 83.664 361.229 82.304ZM371.694 82.352C371.694 81.536 371.534 80.84 371.214 80.264C370.894 79.672 370.462 79.224 369.918 78.92C369.374 78.6 368.79 78.44 368.166 78.44C367.542 78.44 366.966 78.592 366.438 78.896C365.91 79.2 365.478 79.648 365.142 80.24C364.822 80.816 364.662 81.504 364.662 82.304C364.662 83.104 364.822 83.808 365.142 84.416C365.478 85.008 365.91 85.464 366.438 85.784C366.982 86.104 367.558 86.264 368.166 86.264C368.79 86.264 369.374 86.112 369.918 85.808C370.462 85.488 370.894 85.04 371.214 84.464C371.534 83.872 371.694 83.168 371.694 82.352ZM390.719 82.064C390.719 82.544 390.687 82.976 390.623 83.36H380.903C380.983 84.32 381.319 85.072 381.911 85.616C382.503 86.16 383.231 86.432 384.095 86.432C385.343 86.432 386.231 85.896 386.759 84.824H390.383C389.999 86.104 389.263 87.16 388.175 87.992C387.087 88.808 385.751 89.216 384.167 89.216C382.887 89.216 381.735 88.936 380.711 88.376C379.703 87.8 378.911 86.992 378.335 85.952C377.775 84.912 377.495 83.712 377.495 82.352C377.495 80.976 377.775 79.768 378.335 78.728C378.895 77.688 379.679 76.888 380.687 76.328C381.695 75.768 382.855 75.488 384.167 75.488C385.431 75.488 386.559 75.76 387.551 76.304C388.559 76.848 389.335 77.624 389.879 78.632C390.439 79.624 390.719 80.768 390.719 82.064ZM387.239 81.104C387.223 80.24 386.911 79.552 386.303 79.04C385.695 78.512 384.951 78.248 384.071 78.248C383.239 78.248 382.535 78.504 381.959 79.016C381.399 79.512 381.055 80.208 380.927 81.104H387.239ZM398.26 89.216C397.172 89.216 396.196 89.024 395.332 88.64C394.468 88.24 393.78 87.704 393.268 87.032C392.772 86.36 392.5 85.616 392.452 84.8H395.836C395.9 85.312 396.148 85.736 396.58 86.072C397.028 86.408 397.58 86.576 398.236 86.576C398.876 86.576 399.372 86.448 399.724 86.192C400.092 85.936 400.276 85.608 400.276 85.208C400.276 84.776 400.052 84.456 399.604 84.248C399.172 84.024 398.476 83.784 397.516 83.528C396.524 83.288 395.708 83.04 395.068 82.784C394.444 82.528 393.9 82.136 393.436 81.608C392.988 81.08 392.764 80.368 392.764 79.472C392.764 78.736 392.972 78.064 393.388 77.456C393.82 76.848 394.428 76.368 395.212 76.016C396.012 75.664 396.948 75.488 398.02 75.488C399.604 75.488 400.868 75.888 401.812 76.688C402.756 77.472 403.276 78.536 403.372 79.88H400.156C400.108 79.352 399.884 78.936 399.484 78.632C399.1 78.312 398.58 78.152 397.924 78.152C397.316 78.152 396.844 78.264 396.508 78.488C396.188 78.712 396.028 79.024 396.028 79.424C396.028 79.872 396.252 80.216 396.7 80.456C397.148 80.68 397.844 80.912 398.788 81.152C399.748 81.392 400.54 81.64 401.164 81.896C401.788 82.152 402.324 82.552 402.772 83.096C403.236 83.624 403.476 84.328 403.492 85.208C403.492 85.976 403.276 86.664 402.844 87.272C402.428 87.88 401.82 88.36 401.02 88.712C400.236 89.048 399.316 89.216 398.26 89.216ZM424.521 81.92H419.985V86.576H416.817V81.92H412.281V78.992H416.817V74.336H419.985V78.992H424.521V81.92ZM427.348 74.6V71.504H433.132V89H429.676V74.6H427.348ZM436.452 80.024C436.452 77.256 436.948 75.088 437.94 73.52C438.948 71.952 440.612 71.168 442.932 71.168C445.252 71.168 446.908 71.952 447.9 73.52C448.908 75.088 449.412 77.256 449.412 80.024C449.412 82.808 448.908 84.992 447.9 86.576C446.908 88.16 445.252 88.952 442.932 88.952C440.612 88.952 438.948 88.16 437.94 86.576C436.948 84.992 436.452 82.808 436.452 80.024ZM446.1 80.024C446.1 78.84 446.02 77.848 445.86 77.048C445.716 76.232 445.412 75.568 444.948 75.056C444.5 74.544 443.828 74.288 442.932 74.288C442.036 74.288 441.356 74.544 440.892 75.056C440.444 75.568 440.14 76.232 439.98 77.048C439.836 77.848 439.764 78.84 439.764 80.024C439.764 81.24 439.836 82.264 439.98 83.096C440.124 83.912 440.428 84.576 440.892 85.088C441.356 85.584 442.036 85.832 442.932 85.832C443.828 85.832 444.508 85.584 444.972 85.088C445.436 84.576 445.74 83.912 445.884 83.096C446.028 82.264 446.1 81.24 446.1 80.024ZM451.967 80.024C451.967 77.256 452.463 75.088 453.455 73.52C454.463 71.952 456.127 71.168 458.447 71.168C460.767 71.168 462.423 71.952 463.415 73.52C464.423 75.088 464.927 77.256 464.927 80.024C464.927 82.808 464.423 84.992 463.415 86.576C462.423 88.16 460.767 88.952 458.447 88.952C456.127 88.952 454.463 88.16 453.455 86.576C452.463 84.992 451.967 82.808 451.967 80.024ZM461.615 80.024C461.615 78.84 461.535 77.848 461.375 77.048C461.231 76.232 460.927 75.568 460.463 75.056C460.015 74.544 459.343 74.288 458.447 74.288C457.551 74.288 456.871 74.544 456.407 75.056C455.959 75.568 455.655 76.232 455.495 77.048C455.351 77.848 455.279 78.84 455.279 80.024C455.279 81.24 455.351 82.264 455.495 83.096C455.639 83.912 455.943 84.576 456.407 85.088C456.871 85.584 457.551 85.832 458.447 85.832C459.343 85.832 460.023 85.584 460.487 85.088C460.951 84.576 461.255 83.912 461.399 83.096C461.543 82.264 461.615 81.24 461.615 80.024Z" fill="#47585B"/>
<path d="M190.821 26.744C190.501 25.4 189.941 24.392 189.141 23.72C188.373 23.048 187.253 22.712 185.781 22.712C183.573 22.712 181.941 23.608 180.885 25.4C179.861 27.16 179.333 30.04 179.301 34.04C180.069 32.76 181.189 31.768 182.661 31.064C184.133 30.328 185.733 29.96 187.461 29.96C189.541 29.96 191.381 30.408 192.981 31.304C194.581 32.2 195.829 33.512 196.725 35.24C197.621 36.936 198.069 38.984 198.069 41.384C198.069 43.656 197.605 45.688 196.677 47.48C195.781 49.24 194.453 50.616 192.693 51.608C190.933 52.6 188.837 53.096 186.405 53.096C183.077 53.096 180.453 52.36 178.533 50.888C176.645 49.416 175.317 47.368 174.549 44.744C173.813 42.088 173.445 38.824 173.445 34.952C173.445 29.096 174.453 24.68 176.469 21.704C178.485 18.696 181.669 17.192 186.021 17.192C189.381 17.192 191.989 18.104 193.845 19.928C195.701 21.752 196.773 24.024 197.061 26.744H190.821ZM185.925 35.48C184.229 35.48 182.805 35.976 181.653 36.968C180.501 37.96 179.925 39.4 179.925 41.288C179.925 43.176 180.453 44.664 181.509 45.752C182.597 46.84 184.117 47.384 186.069 47.384C187.797 47.384 189.157 46.856 190.149 45.8C191.173 44.744 191.685 43.32 191.685 41.528C191.685 39.672 191.189 38.2 190.197 37.112C189.237 36.024 187.813 35.48 185.925 35.48ZM203.38 35.048C203.38 29.512 204.372 25.176 206.356 22.04C208.372 18.904 211.7 17.336 216.34 17.336C220.98 17.336 224.292 18.904 226.276 22.04C228.292 25.176 229.3 29.512 229.3 35.048C229.3 40.616 228.292 44.984 226.276 48.152C224.292 51.32 220.98 52.904 216.34 52.904C211.7 52.904 208.372 51.32 206.356 48.152C204.372 44.984 203.38 40.616 203.38 35.048ZM222.676 35.048C222.676 32.68 222.516 30.696 222.196 29.096C221.908 27.464 221.3 26.136 220.372 25.112C219.476 24.088 218.132 23.576 216.34 23.576C214.548 23.576 213.188 24.088 212.26 25.112C211.364 26.136 210.756 27.464 210.436 29.096C210.148 30.696 210.004 32.68 210.004 35.048C210.004 37.48 210.148 39.528 210.436 41.192C210.724 42.824 211.332 44.152 212.26 45.176C213.188 46.168 214.548 46.664 216.34 46.664C218.132 46.664 219.492 46.168 220.42 45.176C221.348 44.152 221.956 42.824 222.244 41.192C222.532 39.528 222.676 37.48 222.676 35.048Z" fill="#FFBA08"/>
<path d="M160.524 71.24V89H157.164V71.24H160.524ZM167.348 75.704V89H163.988V75.704H167.348ZM168.284 72.248L162.764 74.768V72.368L168.284 69.512V72.248ZM178.172 75.512C179.756 75.512 181.036 76.016 182.012 77.024C182.988 78.016 183.476 79.408 183.476 81.2V89H180.116V81.656C180.116 80.6 179.852 79.792 179.324 79.232C178.796 78.656 178.076 78.368 177.164 78.368C176.236 78.368 175.5 78.656 174.956 79.232C174.428 79.792 174.164 80.6 174.164 81.656V89H170.804V75.704H174.164V77.36C174.612 76.784 175.18 76.336 175.868 76.016C176.572 75.68 177.34 75.512 178.172 75.512ZM191.88 75.488C192.872 75.488 193.744 75.688 194.496 76.088C195.248 76.472 195.84 76.976 196.272 77.6V75.704H199.656V89.096C199.656 90.328 199.408 91.424 198.912 92.384C198.416 93.36 197.672 94.128 196.68 94.688C195.688 95.264 194.488 95.552 193.08 95.552C191.192 95.552 189.64 95.112 188.424 94.232C187.224 93.352 186.544 92.152 186.384 90.632H189.72C189.896 91.24 190.272 91.72 190.848 92.072C191.44 92.44 192.152 92.624 192.984 92.624C193.96 92.624 194.752 92.328 195.36 91.736C195.968 91.16 196.272 90.28 196.272 89.096V87.032C195.84 87.656 195.24 88.176 194.472 88.592C193.72 89.008 192.856 89.216 191.88 89.216C190.76 89.216 189.736 88.928 188.808 88.352C187.88 87.776 187.144 86.968 186.6 85.928C186.072 84.872 185.808 83.664 185.808 82.304C185.808 80.96 186.072 79.768 186.6 78.728C187.144 77.688 187.872 76.888 188.784 76.328C189.712 75.768 190.744 75.488 191.88 75.488ZM196.272 82.352C196.272 81.536 196.112 80.84 195.792 80.264C195.472 79.672 195.04 79.224 194.496 78.92C193.952 78.6 193.368 78.44 192.744 78.44C192.12 78.44 191.544 78.592 191.016 78.896C190.488 79.2 190.056 79.648 189.72 80.24C189.4 80.816 189.24 81.504 189.24 82.304C189.24 83.104 189.4 83.808 189.72 84.416C190.056 85.008 190.488 85.464 191.016 85.784C191.56 86.104 192.136 86.264 192.744 86.264C193.368 86.264 193.952 86.112 194.496 85.808C195.04 85.488 195.472 85.04 195.792 84.464C196.112 83.872 196.272 83.168 196.272 82.352ZM215.489 75.704V89H212.105V87.32C211.673 87.896 211.105 88.352 210.401 88.688C209.713 89.008 208.961 89.168 208.145 89.168C207.105 89.168 206.185 88.952 205.385 88.52C204.585 88.072 203.953 87.424 203.489 86.576C203.041 85.712 202.817 84.688 202.817 83.504V75.704H206.177V83.024C206.177 84.08 206.441 84.896 206.969 85.472C207.497 86.032 208.217 86.312 209.129 86.312C210.057 86.312 210.785 86.032 211.313 85.472C211.841 84.896 212.105 84.08 212.105 83.024V75.704H215.489ZM217.94 82.304C217.94 80.96 218.204 79.768 218.732 78.728C219.276 77.688 220.004 76.888 220.916 76.328C221.844 75.768 222.876 75.488 224.012 75.488C225.004 75.488 225.868 75.688 226.604 76.088C227.356 76.488 227.956 76.992 228.404 77.6V75.704H231.788V89H228.404V87.056C227.972 87.68 227.372 88.2 226.604 88.616C225.852 89.016 224.98 89.216 223.988 89.216C222.868 89.216 221.844 88.928 220.916 88.352C220.004 87.776 219.276 86.968 218.732 85.928C218.204 84.872 217.94 83.664 217.94 82.304ZM228.404 82.352C228.404 81.536 228.244 80.84 227.924 80.264C227.604 79.672 227.172 79.224 226.628 78.92C226.084 78.6 225.5 78.44 224.876 78.44C224.252 78.44 223.676 78.592 223.148 78.896C222.62 79.2 222.188 79.648 221.852 80.24C221.532 80.816 221.372 81.504 221.372 82.304C221.372 83.104 221.532 83.808 221.852 84.416C222.188 85.008 222.62 85.464 223.148 85.784C223.692 86.104 224.268 86.264 224.876 86.264C225.5 86.264 226.084 86.112 226.628 85.808C227.172 85.488 227.604 85.04 227.924 84.464C228.244 83.872 228.404 83.168 228.404 82.352ZM240.158 89.216C239.07 89.216 238.094 89.024 237.23 88.64C236.366 88.24 235.678 87.704 235.166 87.032C234.67 86.36 234.398 85.616 234.35 84.8H237.734C237.798 85.312 238.046 85.736 238.478 86.072C238.926 86.408 239.478 86.576 240.134 86.576C240.774 86.576 241.27 86.448 241.622 86.192C241.99 85.936 242.174 85.608 242.174 85.208C242.174 84.776 241.95 84.456 241.502 84.248C241.07 84.024 240.374 83.784 239.414 83.528C238.422 83.288 237.606 83.04 236.966 82.784C236.342 82.528 235.798 82.136 235.334 81.608C234.886 81.08 234.662 80.368 234.662 79.472C234.662 78.736 234.87 78.064 235.286 77.456C235.718 76.848 236.326 76.368 237.11 76.016C237.91 75.664 238.846 75.488 239.918 75.488C241.502 75.488 242.766 75.888 243.71 76.688C244.654 77.472 245.174 78.536 245.27 79.88H242.054C242.006 79.352 241.782 78.936 241.382 78.632C240.998 78.312 240.478 78.152 239.822 78.152C239.214 78.152 238.742 78.264 238.406 78.488C238.086 78.712 237.926 79.024 237.926 79.424C237.926 79.872 238.15 80.216 238.598 80.456C239.046 80.68 239.742 80.912 240.686 81.152C241.646 81.392 242.438 81.64 243.062 81.896C243.686 82.152 244.222 82.552 244.67 83.096C245.134 83.624 245.374 84.328 245.39 85.208C245.39 85.976 245.174 86.664 244.742 87.272C244.326 87.88 243.718 88.36 242.918 88.712C242.134 89.048 241.214 89.216 240.158 89.216Z" fill="#47585B"/>
<path d="M44.1031 23.816H28.5511V32.024C29.2231 31.192 30.1831 30.52 31.4311 30.008C32.6791 29.464 34.0071 29.192 35.4151 29.192C37.9751 29.192 40.0711 29.752 41.7031 30.872C43.3351 31.992 44.5191 33.432 45.2551 35.192C45.9911 36.92 46.3591 38.776 46.3591 40.76C46.3591 44.44 45.3031 47.4 43.1911 49.64C41.1111 51.88 38.1351 53 34.2631 53C30.6151 53 27.7031 52.088 25.5271 50.264C23.3511 48.44 22.1191 46.056 21.8311 43.112H28.3591C28.6471 44.392 29.2871 45.416 30.2791 46.184C31.3031 46.952 32.5991 47.336 34.1671 47.336C36.0551 47.336 37.4791 46.744 38.4391 45.56C39.3991 44.376 39.8791 42.808 39.8791 40.856C39.8791 38.872 39.3831 37.368 38.3911 36.344C37.4311 35.288 36.0071 34.76 34.1191 34.76C32.7751 34.76 31.6551 35.096 30.7591 35.768C29.8631 36.44 29.2231 37.336 28.8391 38.456H22.4071V17.912H44.1031V23.816ZM51.4737 35.048C51.4737 29.512 52.4657 25.176 54.4497 22.04C56.4657 18.904 59.7937 17.336 64.4337 17.336C69.0737 17.336 72.3857 18.904 74.3697 22.04C76.3857 25.176 77.3937 29.512 77.3937 35.048C77.3937 40.616 76.3857 44.984 74.3697 48.152C72.3857 51.32 69.0737 52.904 64.4337 52.904C59.7937 52.904 56.4657 51.32 54.4497 48.152C52.4657 44.984 51.4737 40.616 51.4737 35.048ZM70.7697 35.048C70.7697 32.68 70.6097 30.696 70.2897 29.096C70.0017 27.464 69.3937 26.136 68.4657 25.112C67.5697 24.088 66.2257 23.576 64.4337 23.576C62.6417 23.576 61.2817 24.088 60.3537 25.112C59.4577 26.136 58.8497 27.464 58.5297 29.096C58.2417 30.696 58.0977 32.68 58.0977 35.048C58.0977 37.48 58.2417 39.528 58.5297 41.192C58.8177 42.824 59.4257 44.152 60.3537 45.176C61.2817 46.168 62.6417 46.664 64.4337 46.664C66.2257 46.664 67.5857 46.168 68.5137 45.176C69.4417 44.152 70.0497 42.824 70.3377 41.192C70.6257 39.528 70.7697 37.48 70.7697 35.048Z" fill="#FFBA08"/>
<path d="M13.7855 77.624C14.2175 77.016 14.8095 76.512 15.5615 76.112C16.3295 75.696 17.2015 75.488 18.1775 75.488C19.3135 75.488 20.3375 75.768 21.2495 76.328C22.1775 76.888 22.9055 77.688 23.4335 78.728C23.9775 79.752 24.2495 80.944 24.2495 82.304C24.2495 83.664 23.9775 84.872 23.4335 85.928C22.9055 86.968 22.1775 87.776 21.2495 88.352C20.3375 88.928 19.3135 89.216 18.1775 89.216C17.2015 89.216 16.3375 89.016 15.5855 88.616C14.8495 88.216 14.2495 87.712 13.7855 87.104V95.336H10.4255V75.704H13.7855V77.624ZM20.8175 82.304C20.8175 81.504 20.6495 80.816 20.3135 80.24C19.9935 79.648 19.5615 79.2 19.0175 78.896C18.4895 78.592 17.9135 78.44 17.2895 78.44C16.6815 78.44 16.1055 78.6 15.5615 78.92C15.0335 79.224 14.6015 79.672 14.2655 80.264C13.9455 80.856 13.7855 81.552 13.7855 82.352C13.7855 83.152 13.9455 83.848 14.2655 84.44C14.6015 85.032 15.0335 85.488 15.5615 85.808C16.1055 86.112 16.6815 86.264 17.2895 86.264C17.9135 86.264 18.4895 86.104 19.0175 85.784C19.5615 85.464 19.9935 85.008 20.3135 84.416C20.6495 83.824 20.8175 83.12 20.8175 82.304ZM25.8272 82.304C25.8272 80.96 26.0912 79.768 26.6192 78.728C27.1632 77.688 27.8912 76.888 28.8032 76.328C29.7312 75.768 30.7632 75.488 31.8992 75.488C32.8912 75.488 33.7552 75.688 34.4912 76.088C35.2432 76.488 35.8432 76.992 36.2912 77.6V75.704H39.6752V89H36.2912V87.056C35.8592 87.68 35.2592 88.2 34.4912 88.616C33.7392 89.016 32.8672 89.216 31.8752 89.216C30.7552 89.216 29.7312 88.928 28.8032 88.352C27.8912 87.776 27.1632 86.968 26.6192 85.928C26.0912 84.872 25.8272 83.664 25.8272 82.304ZM36.2912 82.352C36.2912 81.536 36.1312 80.84 35.8112 80.264C35.4912 79.672 35.0592 79.224 34.5152 78.92C33.9712 78.6 33.3872 78.44 32.7632 78.44C32.1392 78.44 31.5632 78.592 31.0352 78.896C30.5072 79.2 30.0752 79.648 29.7392 80.24C29.4192 80.816 29.2592 81.504 29.2592 82.304C29.2592 83.104 29.4192 83.808 29.7392 84.416C30.0752 85.008 30.5072 85.464 31.0352 85.784C31.5792 86.104 32.1552 86.264 32.7632 86.264C33.3872 86.264 33.9712 86.112 34.5152 85.808C35.0592 85.488 35.4912 85.04 35.8112 84.464C36.1312 83.872 36.2912 83.168 36.2912 82.352ZM46.4608 75.704V89H43.1008V75.704H46.4608ZM47.3968 72.248L41.8768 74.768V72.368L47.3968 69.512V72.248ZM55.0057 89.216C53.9177 89.216 52.9417 89.024 52.0777 88.64C51.2137 88.24 50.5257 87.704 50.0137 87.032C49.5177 86.36 49.2457 85.616 49.1977 84.8H52.5817C52.6457 85.312 52.8937 85.736 53.3257 86.072C53.7737 86.408 54.3257 86.576 54.9817 86.576C55.6217 86.576 56.1177 86.448 56.4697 86.192C56.8377 85.936 57.0217 85.608 57.0217 85.208C57.0217 84.776 56.7977 84.456 56.3497 84.248C55.9177 84.024 55.2217 83.784 54.2617 83.528C53.2697 83.288 52.4537 83.04 51.8137 82.784C51.1897 82.528 50.6457 82.136 50.1817 81.608C49.7337 81.08 49.5097 80.368 49.5097 79.472C49.5097 78.736 49.7177 78.064 50.1337 77.456C50.5657 76.848 51.1737 76.368 51.9577 76.016C52.7577 75.664 53.6937 75.488 54.7657 75.488C56.3497 75.488 57.6137 75.888 58.5577 76.688C59.5017 77.472 60.0217 78.536 60.1177 79.88H56.9017C56.8537 79.352 56.6297 78.936 56.2297 78.632C55.8457 78.312 55.3257 78.152 54.6697 78.152C54.0617 78.152 53.5897 78.264 53.2537 78.488C52.9337 78.712 52.7737 79.024 52.7737 79.424C52.7737 79.872 52.9977 80.216 53.4457 80.456C53.8937 80.68 54.5897 80.912 55.5337 81.152C56.4937 81.392 57.2857 81.64 57.9097 81.896C58.5337 82.152 59.0697 82.552 59.5177 83.096C59.9817 83.624 60.2217 84.328 60.2377 85.208C60.2377 85.976 60.0217 86.664 59.5897 87.272C59.1737 87.88 58.5657 88.36 57.7657 88.712C56.9817 89.048 56.0617 89.216 55.0057 89.216ZM75.3558 82.064C75.3558 82.544 75.3238 82.976 75.2598 83.36H65.5398C65.6198 84.32 65.9558 85.072 66.5478 85.616C67.1398 86.16 67.8678 86.432 68.7318 86.432C69.9798 86.432 70.8678 85.896 71.3958 84.824H75.0198C74.6358 86.104 73.8998 87.16 72.8118 87.992C71.7238 88.808 70.3878 89.216 68.8038 89.216C67.5238 89.216 66.3718 88.936 65.3478 88.376C64.3398 87.8 63.5478 86.992 62.9718 85.952C62.4118 84.912 62.1318 83.712 62.1318 82.352C62.1318 80.976 62.4118 79.768 62.9718 78.728C63.5318 77.688 64.3158 76.888 65.3238 76.328C66.3318 75.768 67.4918 75.488 68.8038 75.488C70.0678 75.488 71.1958 75.76 72.1878 76.304C73.1958 76.848 73.9718 77.624 74.5158 78.632C75.0758 79.624 75.3558 80.768 75.3558 82.064ZM71.8758 81.104C71.8598 80.24 71.5478 79.552 70.9398 79.04C70.3318 78.512 69.5878 78.248 68.7078 78.248C67.8758 78.248 67.1718 78.504 66.5958 79.016C66.0358 79.512 65.6918 80.208 65.5638 81.104H71.8758ZM82.8963 89.216C81.8083 89.216 80.8323 89.024 79.9683 88.64C79.1043 88.24 78.4163 87.704 77.9043 87.032C77.4083 86.36 77.1363 85.616 77.0883 84.8H80.4723C80.5363 85.312 80.7843 85.736 81.2163 86.072C81.6643 86.408 82.2163 86.576 82.8723 86.576C83.5123 86.576 84.0083 86.448 84.3603 86.192C84.7283 85.936 84.9123 85.608 84.9123 85.208C84.9123 84.776 84.6883 84.456 84.2403 84.248C83.8083 84.024 83.1123 83.784 82.1523 83.528C81.1603 83.288 80.3443 83.04 79.7043 82.784C79.0803 82.528 78.5363 82.136 78.0723 81.608C77.6243 81.08 77.4003 80.368 77.4003 79.472C77.4003 78.736 77.6083 78.064 78.0243 77.456C78.4563 76.848 79.0643 76.368 79.8483 76.016C80.6483 75.664 81.5843 75.488 82.6563 75.488C84.2403 75.488 85.5043 75.888 86.4483 76.688C87.3923 77.472 87.9123 78.536 88.0083 79.88H84.7923C84.7443 79.352 84.5203 78.936 84.1203 78.632C83.7363 78.312 83.2163 78.152 82.5603 78.152C81.9523 78.152 81.4803 78.264 81.1443 78.488C80.8243 78.712 80.6643 79.024 80.6643 79.424C80.6643 79.872 80.8883 80.216 81.3363 80.456C81.7843 80.68 82.4803 80.912 83.4243 81.152C84.3843 81.392 85.1763 81.64 85.8003 81.896C86.4243 82.152 86.9603 82.552 87.4083 83.096C87.8723 83.624 88.1123 84.328 88.1283 85.208C88.1283 85.976 87.9123 86.664 87.4803 87.272C87.0643 87.88 86.4563 88.36 85.6563 88.712C84.8723 89.048 83.9523 89.216 82.8963 89.216Z" fill="#47585B"/>
</svg>
